<svg width="28" height="28" viewBox="0 0 28 28" fill="none" xmlns="http://www.w3.org/2000/svg">
<path d="M11.5288 21.8723C11.263 21.8728 11.0055 21.7802 10.8009 21.6107C10.6857 21.5152 10.5905 21.3979 10.5208 21.2656C10.451 21.1333 10.408 20.9885 10.3943 20.8396C10.3805 20.6906 10.3963 20.5404 10.4407 20.3975C10.4851 20.2547 10.5573 20.122 10.653 20.0071L15.7481 13.9112L10.835 7.80391C10.7405 7.68758 10.67 7.55373 10.6274 7.41004C10.5849 7.26636 10.5711 7.11567 10.587 6.96666C10.6028 6.81764 10.648 6.67322 10.7198 6.54171C10.7916 6.4102 10.8888 6.29418 11.0056 6.20033C11.1233 6.09679 11.2611 6.0187 11.4104 5.97094C11.5596 5.92319 11.7172 5.90681 11.8731 5.92283C12.029 5.93884 12.1799 5.98692 12.3164 6.06403C12.4529 6.14114 12.5719 6.24562 12.6661 6.37092L18.1592 13.1947C18.3265 13.3982 18.4179 13.6534 18.4179 13.9169C18.4179 14.1803 18.3265 14.4356 18.1592 14.6391L12.4727 21.4628C12.3586 21.6005 12.2137 21.7093 12.0497 21.7804C11.8857 21.8515 11.7072 21.883 11.5288 21.8723Z" fill="#D0CFCF"/>
</svg>
