<svg width="29" height="29" viewBox="0 0 29 29" fill="none" xmlns="http://www.w3.org/2000/svg">
<path d="M16.6588 22.8643C16.9316 22.8648 17.1959 22.7698 17.4059 22.5958C17.5241 22.4978 17.6218 22.3775 17.6934 22.2417C17.765 22.1059 17.8091 21.9573 17.8232 21.8044C17.8373 21.6515 17.8211 21.4974 17.7755 21.3508C17.7299 21.2042 17.6559 21.068 17.5576 20.95L12.3284 14.6937L17.3709 8.42572C17.4678 8.30632 17.5402 8.16895 17.5839 8.02148C17.6276 7.87401 17.6417 7.71937 17.6254 7.56643C17.6092 7.41349 17.5628 7.26527 17.4891 7.1303C17.4154 6.99532 17.3157 6.87625 17.1958 6.77993C17.075 6.67367 16.9336 6.59352 16.7804 6.54451C16.6271 6.4955 16.4655 6.47869 16.3054 6.49513C16.1454 6.51157 15.9905 6.5609 15.8505 6.64004C15.7104 6.71918 15.5883 6.82642 15.4916 6.95501L9.85393 13.9584C9.68225 14.1672 9.5884 14.4292 9.5884 14.6995C9.5884 14.9699 9.68225 15.2319 9.85393 15.4407L15.6901 22.4441C15.8071 22.5853 15.9559 22.697 16.1242 22.77C16.2925 22.843 16.4757 22.8753 16.6588 22.8643Z" fill="#D0CFCF"/>
</svg>
